<svg width="101" height="28" viewBox="0 0 101 28" fill="none" xmlns="http://www.w3.org/2000/svg">
<path d="M62.1252 21.7778V10.8889H65.1306V11.6947C65.5008 11.3462 65.9291 11.074 66.4155 10.878C66.9018 10.682 67.4172 10.584 67.9617 10.584C68.7021 10.584 69.3809 10.7546 69.9979 11.0958C70.6222 11.4369 71.1231 11.8907 71.5006 12.4569C71.8853 11.8907 72.3862 11.4369 73.0032 11.0958C73.6203 10.7546 74.2954 10.584 75.0286 10.584C75.8198 10.584 76.5349 10.7764 77.1737 11.1611C77.8198 11.5458 78.3352 12.0612 78.7199 12.7073C79.1046 13.3461 79.297 14.0612 79.297 14.8524V21.7778H76.2917V15.68C76.2917 15.3025 76.1973 14.9613 76.0086 14.6564C75.8271 14.3443 75.5839 14.0975 75.279 13.916C74.9741 13.7272 74.6329 13.6329 74.2555 13.6329C73.878 13.6329 73.5332 13.7236 73.221 13.9051C72.9161 14.0866 72.6693 14.3334 72.4806 14.6455C72.2991 14.9504 72.2084 15.2952 72.2084 15.68V21.7778H69.203V15.68C69.203 15.2952 69.1123 14.9504 68.9308 14.6455C68.7493 14.3334 68.5025 14.0866 68.1904 13.9051C67.8855 13.7236 67.5443 13.6329 67.1668 13.6329C66.7966 13.6329 66.4554 13.7272 66.1432 13.916C65.8384 14.0975 65.5915 14.3443 65.4028 14.6564C65.2213 14.9613 65.1306 15.3025 65.1306 15.68V21.7778H62.1252Z" fill="#BFCDFF"/>
<path d="M81.043 17.7924V10.8889H84.0483V16.9649C84.0483 17.3496 84.1391 17.6981 84.3205 18.0102C84.5093 18.3151 84.7597 18.5583 85.0719 18.7398C85.384 18.9212 85.7252 19.012 86.0954 19.012C86.4729 19.012 86.8177 18.9212 87.1299 18.7398C87.442 18.5583 87.6888 18.3151 87.8703 18.0102C88.0518 17.6981 88.1425 17.3496 88.1425 16.9649V10.8889H91.1479L91.1588 21.7778H88.1534L88.1425 20.9502C87.7796 21.2987 87.3513 21.5709 86.8576 21.7669C86.3713 21.9629 85.8559 22.0609 85.3114 22.0609C84.5274 22.0609 83.8124 21.8685 83.1663 21.4838C82.5202 21.099 82.0048 20.5872 81.6201 19.9484C81.2354 19.3024 81.043 18.5837 81.043 17.7924Z" fill="#BFCDFF"/>
<path d="M93.3566 21.7778L93.3457 10.8889H96.3511L96.362 11.6947C96.7249 11.3462 97.1496 11.074 97.6359 10.878C98.1296 10.682 98.6486 10.584 99.1931 10.584C99.5923 10.584 99.9916 10.6421 100.391 10.7582L99.204 13.7962C98.9426 13.6873 98.6777 13.6329 98.4091 13.6329C98.0316 13.6329 97.6868 13.7236 97.3746 13.9051C97.0625 14.0866 96.8157 14.3334 96.6342 14.6455C96.4527 14.9504 96.362 15.2952 96.362 15.68V21.7778H93.3566Z" fill="#BFCDFF"/>
<path d="M35.8711 21.7778V18.7724L44.1358 9.53866H35.8711V6.53333H48.1973V9.53866L39.9326 18.7724H48.1973V21.7778H35.8711Z" fill="white"/>
<path d="M54.7301 22.0609C53.7284 22.0609 52.8137 21.8032 51.9861 21.2878C51.1658 20.7724 50.5089 20.0827 50.0152 19.2189C49.5289 18.3478 49.2857 17.3859 49.2857 16.3333C49.2857 15.5348 49.4273 14.7907 49.7104 14.1011C49.9935 13.4042 50.3818 12.7944 50.8755 12.2718C51.3764 11.7418 51.9571 11.3281 52.6177 11.0304C53.2783 10.7328 53.9824 10.584 54.7301 10.584C55.7319 10.584 56.643 10.8417 57.4633 11.3571C58.2908 11.8725 58.9478 12.5658 59.4341 13.4369C59.9278 14.308 60.1746 15.2735 60.1746 16.3333C60.1746 17.1246 60.033 17.865 59.7499 18.5547C59.4668 19.2443 59.0748 19.8541 58.5739 20.384C58.0803 20.9067 57.5032 21.3168 56.8426 21.6144C56.1893 21.9121 55.4851 22.0609 54.7301 22.0609ZM54.7301 19.0555C55.1947 19.0555 55.6121 18.9321 55.9824 18.6853C56.3526 18.4313 56.643 18.0973 56.8535 17.6835C57.064 17.2698 57.1693 16.8197 57.1693 16.3333C57.1693 15.8324 57.0567 15.3751 56.8317 14.9613C56.6139 14.5403 56.3199 14.2064 55.9497 13.9595C55.5795 13.7127 55.173 13.5893 54.7301 13.5893C54.2728 13.5893 53.859 13.7164 53.4888 13.9704C53.1186 14.2245 52.8246 14.5584 52.6068 14.9722C52.3963 15.386 52.291 15.8397 52.291 16.3333C52.291 16.8487 52.3999 17.3133 52.6177 17.7271C52.8427 18.1336 53.1404 18.4567 53.5106 18.6962C53.8808 18.9358 54.2873 19.0555 54.7301 19.0555Z" fill="white"/>
<rect width="28" height="28" rx="6.22222" fill="#436CFF"/>
<path opacity="0.6" d="M6.28442 17.3314L15.0273 17.3314L22.5557 11.2591L13.4069 11.2591L6.28442 17.3314Z" fill="white"/>
<path d="M6.24048 17.3649L6.24048 22.4308L22.5453 22.4308L22.5453 17.3381L15.0236 17.3347L15.027 17.3313L6.28409 17.3313L6.24048 17.3649Z" fill="white"/>
<path d="M5.68384 5.72008L5.68384 7.01172L6.97547 7.01172L6.97547 5.72008L5.68384 5.72008Z" fill="white"/>
<path d="M4.63403 4.66666L4.63403 5.72009L5.68747 5.72009L5.68747 4.66666L4.63403 4.66666Z" fill="white"/>
<path d="M3.88892 5.72006L3.88892 6.46484L4.6337 6.46484L4.6337 5.72006L3.88892 5.72006Z" fill="white"/>
<path d="M7.68286 6.15947L7.68286 7.83691L9.36031 7.83691L9.36031 6.15947L7.68286 6.15947Z" fill="white"/>
<path d="M10.8367 7.83704L9.36053 7.83704L9.36053 9.48094L7.68308 9.48094L7.68308 7.83704L6.24048 7.83704L6.24048 11.2255L13.4401 11.2255L13.4065 11.259L22.5553 11.259L22.5453 6.15959L10.8367 6.15959L10.8367 7.83704Z" fill="white"/>
</svg>
